<svg width="24" height="24" viewBox="0 0 24 24" fill="none" xmlns="http://www.w3.org/2000/svg">
<path d="M5 4.86133C5.92014 3.9591 7.01087 3.23581 8.21973 2.74219C10.2737 1.9036 12.5485 1.77141 14.6855 2.36719C16.8227 2.96313 18.7017 4.25364 20.0254 6.03418C21.3489 7.81466 22.043 9.98505 21.998 12.2031C21.9038 14.4235 21.1833 16.5467 19.7764 18.2871C18.3444 19.9856 16.4696 21.2206 14.293 21.7334C12.1145 22.2466 9.88966 21.975 7.84766 21.0977C5.82925 20.1764 4.17507 18.6094 3.14453 16.6445L4.91504 15.7158C5.73947 17.2877 7.06399 18.5404 8.67871 19.2773C10.2934 20.0143 12.1074 20.1941 13.835 19.7871C15.5625 19.38 17.1059 18.4096 18.2217 17.0293C19.3374 15.649 19.9621 13.9366 19.998 12.1621C20.034 10.3875 19.4789 8.65098 18.4199 7.22657C17.3609 5.80232 15.858 4.77066 14.1484 4.29395C12.4388 3.8173 10.6188 3.92287 8.97559 4.59375C8.15197 4.95013 7.38655 5.4043 6.71094 6H9V8H3V2H5V4.86133Z" fill="black"/>
<path d="M13 11.5859L16.2422 14.8281L14.8281 16.2432L11.293 12.707C11.112 12.5261 11 12.2761 11 12V7H13V11.5859Z" fill="black"/>
</svg>
