<svg width="24" height="24" viewBox="0 0 24 24" fill="none" xmlns="http://www.w3.org/2000/svg">
<path d="M5.5 22V2H11.5671C13.9858 2 15.7642 2.43699 16.9024 3.31098C18.0407 4.18496 18.6098 5.35366 18.6098 6.81707C18.6098 8.05691 18.3252 9.06301 17.7561 9.83537C17.2073 10.5874 16.4858 11.1159 15.5915 11.4207V11.5122C16.8313 11.7561 17.7764 12.2744 18.4268 13.0671C19.0976 13.8394 19.4329 14.8049 19.4329 15.9634C19.4329 17.874 18.7927 19.3577 17.5122 20.4146C16.2317 21.4715 14.3313 22 11.811 22H5.5ZM9.40244 18.8598H11.6585C12.878 18.8598 13.7927 18.6159 14.4024 18.128C15.0122 17.6199 15.3171 16.9085 15.3171 15.9939C15.3171 15.1199 15.0122 14.4594 14.4024 14.0122C13.813 13.5447 12.7663 13.311 11.2622 13.311H9.40244V18.8598ZM9.40244 10.3232H11.1707C12.2886 10.3232 13.122 10.1098 13.6707 9.68293C14.2195 9.23577 14.4939 8.55488 14.4939 7.64024C14.4939 6.80691 14.2398 6.18699 13.7317 5.78049C13.2439 5.35366 12.4207 5.14024 11.2622 5.14024H9.40244V10.3232Z" fill="black"/>
</svg>
