<svg width="24" height="24" viewBox="0 0 24 24" fill="none" xmlns="http://www.w3.org/2000/svg">
<path fill-rule="evenodd" clip-rule="evenodd" d="M17 5V6H19C20.6569 6 22 7.34315 22 9V18C22 19.66 20.66 21 19 21H5C3.34 21 2 19.66 2 18V9C2 7.34315 3.34315 6 5 6H7V5C7 3.34315 8.34315 2 10 2H14C15.66 2 17 3.34 17 5ZM20 13.4639C19.4 13.8 18.7048 14 18 14H6C5.29518 14 4.6 13.8 4 13.4639V18C4 18.5523 4.44772 19 5 19H19C19.5523 19 20 18.5523 20 18V13.4639ZM5 8C4.44772 8 4 8.44772 4 9V10C4 11.1046 4.89543 12 6 12H18C19.1046 12 20 11.1046 20 10V9C20 8.44771 19.5523 8 19 8H5ZM10 4C9.44772 4 9 4.44772 9 5V6H15V5C15 4.44772 14.5523 4 14 4H10Z" fill="black"/>
</svg>
