<svg width="24" height="24" viewBox="0 0 24 24" fill="none" xmlns="http://www.w3.org/2000/svg">
<path fill-rule="evenodd" clip-rule="evenodd" d="M19 4C20.6569 4 22 5.34315 22 7V17C22 18.66 20.66 20 19 20H5C3.34 20 2 18.66 2 17V7C2 5.34315 3.34315 4 5 4H19ZM13.5 13.5615C12.5718 14.0974 11.4282 14.0974 10.5 13.5615L4 9.80957V17C4 17.5523 4.44772 18 5 18H19C19.5523 18 20 17.5523 20 17V9.80957L13.5 13.5615ZM5 6C4.44772 6 4 6.44772 4 7V7.5L11.5 11.8301C11.8093 12.0085 12.1907 12.0086 12.5 11.8301L20 7.5V7C20 6.44771 19.5523 6 19 6H5Z" fill="black"/>
</svg>
