<svg width="24" height="24" viewBox="0 0 24 24" fill="none" xmlns="http://www.w3.org/2000/svg">
<path d="M4.5 10.9387V9.05531H15.8901V10.9387H4.5ZM15.8901 13.4499V15.3333H4.5V13.4499H15.8901ZM15.0531 22C13.4586 22 12.0536 21.6413 10.8378 20.9238C9.62207 20.2063 8.66542 19.14 7.96786 17.725C7.29023 16.3099 6.95142 14.5461 6.95142 12.4335C6.95142 10.6198 7.18062 9.05531 7.63901 7.73991C8.11734 6.42452 8.75511 5.34828 9.55232 4.51121C10.3495 3.65421 11.2564 3.02641 12.2728 2.6278C13.3092 2.20927 14.3854 2 15.5015 2C16.1393 2 16.7073 2.0299 17.2055 2.08969C17.7038 2.14948 18.1821 2.24913 18.6405 2.38864V4.48131C17.9629 4.32187 17.4148 4.22222 16.9963 4.18236C16.5777 4.12257 16.0396 4.09268 15.3819 4.09268C14.5847 4.09268 13.8274 4.25212 13.1099 4.571C12.4123 4.88989 11.7845 5.37818 11.2265 6.03588C10.6684 6.69357 10.2299 7.53064 9.91106 8.54709C9.59218 9.5436 9.43274 10.7195 9.43274 12.0747C9.43274 13.8485 9.68186 15.3134 10.1801 16.4694C10.6983 17.6253 11.4058 18.4923 12.3027 19.0703C13.1996 19.6283 14.226 19.9073 15.3819 19.9073C15.9599 19.9073 16.5179 19.8774 17.0561 19.8176C17.5942 19.7578 18.1921 19.6482 18.8498 19.4888V21.5217C18.1721 21.6811 17.5443 21.8007 16.9664 21.8804C16.4083 21.9601 15.7706 22 15.0531 22Z" fill="black"/>
</svg>
