<svg width="24" height="24" viewBox="0 0 24 24" fill="none" xmlns="http://www.w3.org/2000/svg">
<path d="M12.0001 14C12.6904 14 13.2501 14.5597 13.2501 15.25C13.2501 15.9403 12.6904 16.5 12.0001 16.5C11.3098 16.5 10.7501 15.9404 10.7501 15.25C10.7501 14.5596 11.3098 14 12.0001 14Z" fill="black"/>
<path d="M13.0001 12.5H11.0001V7.5H13.0001V12.5Z" fill="black"/>
<path fill-rule="evenodd" clip-rule="evenodd" d="M11.9903 1.96777C13.0779 1.96789 14.0798 2.55663 14.6095 3.50586L21.7052 15.748C21.7287 15.7885 21.7491 15.8307 21.7667 15.874C22.1394 16.7953 22.0323 17.842 21.4796 18.668C20.9269 19.494 20.0007 19.9921 19.0069 19.999H5.00011C4.98183 19.999 4.96346 19.999 4.94542 19.998C4.91035 19.9999 4.87484 19.9999 4.83898 19.998C3.86928 19.9481 2.98332 19.4315 2.46202 18.6123C1.9409 17.7932 1.84862 16.7725 2.21398 15.873C2.23143 15.8301 2.25129 15.7882 2.27452 15.748L9.37023 3.50586C9.89999 2.55653 10.9026 1.96777 11.9903 1.96777ZM11.9903 3.96777C11.6267 3.96777 11.2915 4.16525 11.1153 4.4834L11.1056 4.50098L4.04601 16.6797C3.94866 16.9658 3.98616 17.2824 4.14952 17.5391C4.3233 17.812 4.61834 17.9843 4.94152 18.001H4.94445C4.96274 18 4.98157 17.999 5.00011 17.999H18.9962C19.3263 17.9957 19.6339 17.8301 19.8175 17.5557C19.9907 17.2967 20.0326 16.9727 19.9337 16.6797L12.8751 4.50098L12.8653 4.4834C12.6893 4.16518 12.354 3.96789 11.9903 3.96777Z" fill="black"/>
</svg>
