<svg width="24" height="24" viewBox="0 0 24 24" fill="none" xmlns="http://www.w3.org/2000/svg">
<path d="M12 4C17.0117 4 21.2947 7.10785 23.0342 11.5C21.2947 15.892 17.0125 18.9998 12.001 19C6.98911 19 2.70526 15.8923 0.96582 11.5C2.7052 7.10782 6.98834 4.0002 12 4ZM12 6C8.12246 6.00019 4.76559 8.23881 3.15332 11.5C4.76568 14.7613 8.12314 17 12.001 17C15.878 16.9998 19.2333 14.761 20.8457 11.5C19.2332 8.2389 15.8773 6 12 6ZM12 7C14.4853 7 16.5 9.01472 16.5 11.5C16.5 13.9853 14.4853 16 12 16C9.51472 16 7.5 13.9853 7.5 11.5C7.5 9.01472 9.51472 7 12 7ZM12 9C10.6193 9 9.5 10.1193 9.5 11.5C9.5 12.8807 10.6193 14 12 14C13.3807 14 14.5 12.8807 14.5 11.5C14.5 10.1193 13.3807 9 12 9Z" fill="black"/>
</svg>
