<svg width="24" height="24" viewBox="0 0 24 24" fill="none" xmlns="http://www.w3.org/2000/svg">
<path fill-rule="evenodd" clip-rule="evenodd" d="M7 4C6.44772 4 6 4.44772 6 5V19C6 19.5523 6.44772 20 7 20H17C17.5523 20 18 19.5523 18 19V9H15C13.8954 9 13 8.10457 13 7V4H7ZM15 5.41421L16.5858 7H15V5.41421ZM4 5C4 3.34315 5.34315 2 7 2H14C14.2652 2 14.5196 2.10536 14.7071 2.29289L19.7071 7.29289C19.8946 7.48043 20 7.73478 20 8V19C20 20.6569 18.6569 22 17 22H7C5.34315 22 4 20.6569 4 19V5ZM8 8H11V10H8V8ZM8 12H16V14H8V12ZM8 16H16V18H8V16Z" fill="black"/>
</svg>
