<svg width="24" height="24" viewBox="0 0 24 24" fill="none" xmlns="http://www.w3.org/2000/svg">
<path fill-rule="evenodd" clip-rule="evenodd" d="M12.0003 8C14.2093 8.00017 16.0003 9.79097 16.0003 12C16.0003 14.209 14.2093 15.9998 12.0003 16C9.79118 16 8.00032 14.2091 8.00032 12C8.00032 9.79086 9.79118 8 12.0003 8ZM12.0003 10C10.8957 10 10.0003 10.8954 10.0003 12C10.0003 13.1046 10.8957 14 12.0003 14C13.1047 13.9998 14.0003 13.1045 14.0003 12C14.0003 10.8955 13.1047 10.0002 12.0003 10Z" fill="black"/>
<path fill-rule="evenodd" clip-rule="evenodd" d="M13.1907 2C14.2177 2.00047 15.0786 2.77885 15.181 3.80078L15.2708 4.69922C15.7724 4.92425 16.2345 5.20818 16.6868 5.51758L17.5111 5.14648C18.4474 4.72437 19.5521 5.08014 20.0657 5.96973L21.2562 8.03027C21.7694 8.91974 21.5252 10.0545 20.6917 10.6543L19.9583 11.1807C20.0128 11.7165 20.014 12.2705 19.9583 12.8184L20.6917 13.3457C21.5253 13.9455 21.7695 15.0802 21.2562 15.9697L19.9622 18.1904C19.4508 18.9099 18.5231 19.2092 17.6878 18.9238L16.6868 18.4814C16.2466 18.8003 15.7721 19.0748 15.2708 19.2998L15.1527 20.3877C14.9824 21.2536 14.2597 21.9076 13.3812 21.9912H10.6195C9.67814 21.9018 8.91653 21.1575 8.82063 20.1992L8.72981 19.2998C8.22851 19.0748 7.75397 18.8003 7.31379 18.4814L6.31282 18.9238C5.47752 19.2094 4.54995 18.9099 4.0384 18.1904L2.74543 15.9697C2.26376 15.1354 2.44795 14.0859 3.16047 13.4639L4.04231 12.8184C3.98713 12.2753 3.98709 11.7235 4.04231 11.1807L3.30989 10.6543C2.52818 10.092 2.26441 9.06004 2.65754 8.2002L3.93586 5.96973C4.44972 5.08018 5.55414 4.72389 6.49055 5.14648L7.31379 5.51758C7.75395 5.19883 8.22855 4.92415 8.72981 4.69922L8.82063 3.80078C8.91664 2.84261 9.67822 2.09824 10.6195 2.00879L13.1907 2ZM10.8099 4.00195L10.6029 6.05078L9.54817 6.52344C9.17125 6.69258 8.81577 6.89933 8.48664 7.1377L7.54817 7.81738L5.66829 6.96973L4.47688 9.03027L6.14875 10.2314C6.08901 10.8184 6.00129 11.4089 6.00129 12C6.00129 12.5901 6.08901 13.1796 6.14875 13.7656L4.47786 14.9688L4.47688 14.9697L5.66731 17.0303L7.54719 16.1807L8.48664 16.8613C8.73348 17.0401 8.99521 17.2013 9.26985 17.3418L10.6029 17.9482L10.8099 19.998V20H13.1907L13.3958 17.9492L14.4515 17.4746C14.8283 17.3055 15.1837 17.0998 15.513 16.8613L16.4525 16.1816L18.3333 17.0303L19.5238 14.9697L17.8509 13.7666C17.9106 13.1809 18.0013 12.5899 18.0013 12C18.0013 11.4095 17.9106 10.8178 17.8509 10.2314L19.5238 9.03027L18.3333 6.96973H18.3314L16.4515 7.81641L15.513 7.1377C15.1835 6.89913 14.828 6.69333 14.4515 6.52441L13.3958 6.0498L13.1907 4H10.8099V4.00195Z" fill="black"/>
</svg>
