<svg width="24" height="24" viewBox="0 0 24 24" fill="none" xmlns="http://www.w3.org/2000/svg">
<path d="M12.0001 5.21574C14.2877 2.92809 17.9966 2.92809 20.2842 5.21574C22.5719 7.50339 22.5719 11.2123 20.2842 13.4999L20.2833 13.5009L20.2842 13.5029L12.0001 21.787L3.71586 13.5029C1.41898 11.2058 1.49997 7.52421 3.71586 5.21866C5.99997 2.9161 9.68418 3.02583 11.9991 5.21671L12.0001 5.21574ZM18.8702 6.6298C17.3636 5.1232 14.9207 5.1232 13.4141 6.6298L11.9991 8.04484L10.585 6.63175C9.07839 5.12621 6.6362 5.12658 5.12992 6.63273C3.62351 8.13922 3.62339 10.5821 5.12992 12.0888L12.0001 18.9589L18.8702 12.0859C20.3768 10.5793 20.3768 8.1364 18.8702 6.6298Z" fill="black"/>
</svg>
