<svg width="24" height="24" viewBox="0 0 24 24" fill="none" xmlns="http://www.w3.org/2000/svg">
<path d="M14.5859 21.6602C12.8921 22.1122 11.1039 22.1124 9.41016 21.6602L9.92578 19.7305C11.2817 20.0924 12.7164 20.0924 14.0723 19.7305L14.5859 21.6602Z" fill="black"/>
<path d="M5.06934 15.999C5.77217 17.2138 6.78624 18.2278 8.00098 18.9307L7 20.6592C5.48249 19.781 4.21779 18.5167 3.33984 16.999L5.06934 15.999Z" fill="black"/>
<path d="M20.6592 16.999C19.7811 18.5167 18.5167 19.7811 16.999 20.6592L15.999 18.9307C17.2138 18.2278 18.2278 17.2138 18.9307 15.999L20.6592 16.999Z" fill="black"/>
<path d="M4.27051 9.92773C4.09446 10.5865 4 11.2807 4 12C4 12.7193 4.09446 13.4135 4.27051 14.0723L2.33984 14.5879C2.11924 13.7623 2 12.8951 2 12C2 11.1046 2.11908 10.237 2.33984 9.41113L4.27051 9.92773Z" fill="black"/>
<path d="M21.6592 9.41113C21.88 10.237 22 11.1045 22 12C22 12.8952 21.8798 13.7622 21.6592 14.5879L20.6953 14.3311L19.7295 14.0723C19.9055 13.4135 20 12.7193 20 12C20 11.2807 19.9055 10.5865 19.7295 9.92773L21.6592 9.41113Z" fill="black"/>
<path d="M8.00098 5.06934C6.78624 5.77217 5.77217 6.78624 5.06934 8.00098L3.33984 7C4.21785 5.48254 5.48254 4.21785 7 3.33984L8.00098 5.06934Z" fill="black"/>
<path d="M16.999 3.33984C18.5167 4.21779 19.781 5.48249 20.6592 7L18.9307 8.00098C18.2278 6.78624 17.2138 5.77217 15.999 5.06934L16.999 3.33984Z" fill="black"/>
<path d="M12 2C12.8951 2 13.7623 2.11924 14.5879 2.33984L14.3311 3.30469L14.3301 3.30371L14.0723 4.27051C13.4135 4.09446 12.7193 4 12 4C11.2807 4 10.5865 4.09446 9.92773 4.27051L9.41113 2.33984C10.237 2.11908 11.1046 2 12 2Z" fill="black"/>
</svg>
