<svg width="24" height="24" viewBox="0 0 24 24" fill="none" xmlns="http://www.w3.org/2000/svg">
<path fill-rule="evenodd" clip-rule="evenodd" d="M21 6V18C21 19.66 19.66 21 18 21H6C4.34 21 3 19.66 3 18V6C3 4.34315 4.34315 3 6 3H18C19.66 3 21 4.34 21 6ZM5 18C5 18.5523 5.44772 19 6 19H18C18.5523 19 19 18.5523 19 18V14H15.874C15.43 15.7252 13.8638 17 12 17C10.1362 17 8.57002 15.7252 8.12598 14H5V18ZM6 5C5.44772 5 5 5.44772 5 6V12H10V13C10 14.0827 10.92 15 12 15C13.08 15 14 14.0819 14 13V12H19V6C19 5.44772 18.5523 5 18 5H6Z" fill="black"/>
</svg>
