<svg width="24" height="24" viewBox="0 0 24 24" fill="none" xmlns="http://www.w3.org/2000/svg">
<path d="M13 17.5H11V10.5H13V17.5Z" fill="black"/>
<path d="M12 6.5C12.6904 6.5 13.25 7.05964 13.25 7.75C13.25 8.44036 12.6904 9 12 9C11.3096 9 10.75 8.44036 10.75 7.75C10.75 7.05964 11.3096 6.5 12 6.5Z" fill="black"/>
<path fill-rule="evenodd" clip-rule="evenodd" d="M12 2C17.5228 2 22 6.47715 22 12C22 17.5228 17.5228 22 12 22C6.47715 22 2 17.5228 2 12C2 6.47715 6.47715 2 12 2ZM12 4C7.58172 4 4 7.58172 4 12C4 16.4183 7.58172 20 12 20C16.4183 20 20 16.4183 20 12C20 7.58172 16.4183 4 12 4Z" fill="black"/>
</svg>
