<svg width="24" height="24" viewBox="0 0 24 24" fill="none" xmlns="http://www.w3.org/2000/svg">
<path d="M5.22266 14.0146C6.2261 14.0146 6.85738 14.3312 7.16699 14.8789C7.45079 15.3701 7.47547 16.0328 7.28418 16.5625C7.13071 16.9754 6.81084 17.3268 6.21289 17.7051C5.73202 18.0103 5.23302 18.289 4.87207 18.7402H7.54492V20H3.5127L3.37793 18.9473C3.47991 18.6293 3.62738 18.3354 3.81934 18.0654C4.01734 17.7954 4.30838 17.5249 4.69238 17.2549C4.97888 17.0556 5.30592 16.8726 5.53809 16.6074C5.77686 16.3175 5.90907 15.7828 5.57422 15.5088C5.44222 15.3948 5.22299 15.3379 4.91699 15.3379C4.39266 15.3379 4.04318 15.3717 3.58496 15.5V14.2129C4.11337 14.0808 4.67165 14.0147 5.22266 14.0146Z" fill="black"/>
<path d="M22 19H10V17H22V19Z" fill="black"/>
<path d="M22 13H10V11H22V13Z" fill="black"/>
<path d="M6.4834 10H4.93457V5.32324C4.46125 5.32327 3.97448 5.36409 3.54883 5.44922V4.2793C4.51426 4.0207 5.49265 4 6.4834 4V10Z" fill="black"/>
<path d="M22 7H10V5H22V7Z" fill="black"/>
</svg>
