<svg width="24" height="24" viewBox="0 0 24 24" fill="none" xmlns="http://www.w3.org/2000/svg">
<path d="M10.9316 6H5C4.44771 6 4 6.44771 4 7V19C4 19.5523 4.44772 20 5 20H17C17.5523 20 18 19.5523 18 19V13.0732L20 11.0732V19C20 20.66 18.66 22 17 22H5C3.34 22 2 20.66 2 19V7C2 5.34314 3.34315 4 5 4H12.9307L10.9316 6Z" fill="black"/>
<path fill-rule="evenodd" clip-rule="evenodd" d="M17.1748 2.58593C17.9558 1.80495 19.2228 1.80508 20.0039 2.58593L21.418 4C22.1987 4.78097 22.1987 6.04712 21.418 6.82812L11.2461 17H7.00293V12.7578L17.1748 2.58593ZM9.00293 13.5859V15H10.417L17.1748 8.24218L15.7607 6.82812L9.00293 13.5859ZM17.1748 5.41406L18.5889 6.82812L20.0039 5.41406L18.5889 4L17.1748 5.41406Z" fill="black"/>
</svg>
