<svg width="24" height="24" viewBox="0 0 24 24" fill="none" xmlns="http://www.w3.org/2000/svg">
<path d="M11.6953 14.4707C12.0713 14.4707 12.3586 14.5793 12.5566 14.7969C12.7645 15.0048 12.8691 15.3071 12.8691 15.7031C12.8691 16.0695 12.7646 16.3613 12.5566 16.5791C12.3586 16.7969 12.0716 16.9062 11.6953 16.9062C11.3095 16.9062 11.0125 16.8024 10.8047 16.5947C10.6067 16.3769 10.5078 16.0794 10.5078 15.7031C10.5078 15.327 10.6068 15.0303 10.8047 14.8125C11.0126 14.5848 11.3093 14.4708 11.6953 14.4707Z" fill="black"/>
<path d="M12.2451 7C13.1362 7 13.8339 7.20824 14.3389 7.62402C14.8438 8.02998 15.0967 8.57462 15.0967 9.25781C15.0966 9.86165 14.9626 10.3571 14.6953 10.7432C14.4379 11.1191 14.0373 11.4361 13.4932 11.6934L12.7646 12.0645C12.5471 12.1733 12.389 12.2971 12.29 12.4355C12.201 12.5642 12.1563 12.7079 12.1562 12.8662C12.1562 13.0048 12.1763 13.1484 12.2158 13.2969C12.2554 13.4355 12.3096 13.5695 12.3789 13.6982L10.8936 13.7725C10.755 13.6438 10.6409 13.4802 10.5518 13.2822C10.4627 13.0744 10.418 12.8613 10.418 12.6436C10.418 12.2971 10.5026 11.9947 10.6709 11.7373C10.8392 11.4701 11.1313 11.2227 11.5469 10.9951L12.334 10.5498C12.6408 10.3815 12.8538 10.2179 12.9727 10.0596C13.0915 9.90115 13.1514 9.71295 13.1514 9.49512C13.1514 9.2377 13.042 9.03998 12.8242 8.90137C12.6163 8.75285 12.2646 8.67871 11.7695 8.67871C11.4232 8.67874 11.0768 8.71773 10.7305 8.79688C10.3839 8.86618 10.037 8.96503 9.69043 9.09375V7.47559C10.1062 7.30731 10.5123 7.18846 10.9082 7.11914C11.3141 7.03993 11.76 7 12.2451 7Z" fill="black"/>
<path fill-rule="evenodd" clip-rule="evenodd" d="M12 2C17.5228 2 22 6.47715 22 12C22 17.5228 17.5228 22 12 22C6.47715 22 2 17.5228 2 12C2 6.47715 6.47715 2 12 2ZM12 4C7.58172 4 4 7.58172 4 12C4 16.4183 7.58172 20 12 20C16.4183 20 20 16.4183 20 12C20 7.58172 16.4183 4 12 4Z" fill="black"/>
</svg>
