<svg width="24" height="24" viewBox="0 0 24 24" fill="none" xmlns="http://www.w3.org/2000/svg">
<path d="M9 11H7C6.44772 11 6 11.4477 6 12V19C6 19.5523 6.44772 20 7 20H17C17.5523 20 18 19.5523 18 19V12C18 11.4477 17.5523 11 17 11H15V9H17C18.6569 9 20 10.3431 20 12V19C20 20.6569 18.6569 22 17 22H7C5.34 22 4 20.66 4 19V12C4 10.3431 5.34315 9 7 9H9V11Z" fill="black"/>
<path d="M16.5898 5.58984L15.1699 7L13 4.82812V16H11V4.82812L8.83008 7L7.41016 5.58984L12 1L16.5898 5.58984Z" fill="black"/>
</svg>
