<svg width="24" height="24" viewBox="0 0 24 24" fill="none" xmlns="http://www.w3.org/2000/svg">
<path fill-rule="evenodd" clip-rule="evenodd" d="M8 4C8 2.89543 8.89543 2 10 2H14C15.1046 2 16 2.89543 16 4V6H18.9883C18.9953 5.99993 19.0024 5.99993 19.0095 6H21V8H19.9201L18.9997 19.0457C18.9752 20.6815 17.6416 22 16 22H8C6.3584 22 5.02476 20.6815 5.00034 19.0457L4.07987 8H3V6H4.99054C4.9976 5.99993 5.00466 5.99993 5.0117 6H8V4ZM6.0868 8L6.99655 18.917C6.99885 18.9446 7 18.9723 7 19C7 19.5523 7.44772 20 8 20H16C16.5523 20 17 19.5523 17 19C17 18.9723 17.0012 18.9446 17.0035 18.917L17.9132 8H6.0868ZM14 6H10V4H14V6ZM11 10V18H9V10H11ZM15 10V18H13V10H15Z" fill="black"/>
</svg>
